:SAMPLES-PER-SECOND 30
:FULLY-SPECIFIED
:DEGREES
370
root  -26.1568 40.186 -7.49923 -19.3035 -76.2947 15.7186
RightUpLeg  -21.3279 -21.558 -7.20116
RightLeg  51.9059 -1.61485 -2.54159
RightFoot  5.61182 -0.612558 4.37142
RightToes  0.00048216 0.542163 -0.142577
Spine  22.2669 5.08048 7.80237
Spine1  11.0188 12.3186 -18.1264
HEad  13.7097 0.0701597 -3.18024
LeftShoulder1  9.54009 -14.7656 -45.5255
LeftArm  -22.1305 11.7444 -22.3927
LeftForeArm  -5.23107 -47.8261 -12.7511
LeftHand  -0.25398 0.0180481 5.50724
RightShoulder  6.52447 13.1791 33.1514
RightArm  44.3424 37.7143 66.5122
RightForeArm  -35.2293 23.3062 6.77403
RightHand  -0.495161 -0.376067 -11.4241
LeftUpLeg  -7.77344 10.2493 -4.87956
LeftLeg  16.9887 3.57128 0.138527
LeftFoot  -5.53128 -0.135493 3.32487
LeftToes  1.06246e-005 4.65855e-005 -8.185e-006
371
root  -27.2151 40.3324 -7.83352 -16.9898 -74.8378 13.8926
RightUpLeg  -21.672 -20.7133 -7.89426
RightLeg  40.8103 -4.16307 -4.06011
RightFoot  3.95987 -0.438013 3.43378
RightToes  0.00048216 0.542163 -0.142577
Spine  22.824 4.68867 7.34069
Spine1  10.6118 11.5606 -17.3454
HEad  13.5578 0.472809 -3.45463
LeftShoulder1  9.58002 -14.8254 -45.5686
LeftArm  -21.6267 9.49208 -23.2664
LeftForeArm  -5.22645 -46.4114 -12.1297
LeftHand  -0.25398 0.0180481 5.50724
RightShoulder  6.49617 13.2214 32.8834
RightArm  42.3595 38.9147 65.7023
RightForeArm  -33.911 22.3892 6.99657
RightHand  -0.427084 -0.698574 -10.4832
LeftUpLeg  -6.20553 8.79523 -3.63884
LeftLeg  15.8945 3.05974 -0.421803
LeftFoot  -6.04952 -0.0608584 2.11027
LeftToes  1.06246e-005 4.65855e-005 -8.185e-006
372
root  -28.3414 40.4088 -8.20469 -14.8753 -72.8882 12.1463
RightUpLeg  -20.2676 -20.1403 -8.75757
RightLeg  27.6741 -6.5645 -4.10446
RightFoot  1.41169 -0.225838 2.12684
RightToes  0.00048216 0.542163 -0.142577
Spine  23.2294 4.17076 7.18251
Spine1  10.5083 10.8241 -16.7685
HEad  13.2246 0.562207 -3.51806
LeftShoulder1  9.65985 -14.9879 -45.5435
LeftArm  -20.8728 7.18225 -23.8812
LeftForeArm  -5.52198 -45.0342 -11.5795
LeftHand  -0.25398 0.0180481 5.50724
RightShoulder  6.46826 13.212 32.7385
RightArm  40.0314 40.1073 64.7609
RightForeArm  -32.4903 21.4922 7.34628
RightHand  -0.372852 -0.988986 -9.70665
LeftUpLeg  -5.07417 8.0183 -2.61314
LeftLeg  15.7835 1.70124 -0.472597
LeftFoot  -6.72886 0.00556249 0.89571
LeftToes  1.06246e-005 4.65855e-005 -8.185e-006
373
root  -29.5964 40.3132 -8.62062 -12.1554 -70.5798 9.48395
RightUpLeg  -17.7462 -18.7299 -9.68281
RightLeg  15.9929 -6.30086 -1.78382
RightFoot  0.545323 -0.230508 2.22812
RightToes  0.00048216 0.542163 -0.142577
Spine  23.3009 3.64133 7.70738
Spine1  10.9151 10.3219 -16.3883
HEad  12.9356 0.270992 -3.5405
LeftShoulder1  9.76507 -15.2576 -45.3709
LeftArm  -20.0602 4.58748 -24.4148
LeftForeArm  -5.86036 -43.2282 -10.8965
LeftHand  -0.25398 0.0180481 5.50724
RightShoulder  6.39743 13.1572 32.4408
RightArm  37.4213 41.1725 63.5453
RightForeArm  -31.2902 20.508 7.83853
RightHand  -0.351453 -1.01855 -9.19316
LeftUpLeg  -4.54399 6.65777 -1.39545
LeftLeg  17.5763 0.686431 0.156558
LeftFoot  -8.79698 0.0411982 0.494137
LeftToes  1.06246e-005 4.65855e-005 -8.185e-006
374
root  -30.8949 40.1048 -9.08324 -8.55246 -68.3774 5.46831
RightUpLeg  -15.7043 -14.4073 -10.571
RightLeg  11.048 -6.29012 0.878217
RightFoot  2.54741 -0.390778 3.35495
RightToes  0.00048216 0.542163 -0.142577
Spine  23.5801 3.21775 9.09484
Spine1  11.3434 10.0133 -15.5523
HEad  12.7862 -0.184204 -3.50992
LeftShoulder1  9.81539 -15.4279 -45.1865
LeftArm  -19.5464 1.85111 -24.8413
LeftForeArm  -5.65962 -41.3701 -10.2057
LeftHand  -0.25398 0.0180481 5.50724
RightShoulder  6.33383 13.162 32.0474
RightArm  34.9563 42.0791 62.1596
RightForeArm  -30.0177 19.418 8.45785
RightHand  -0.321298 -1.04515 -8.42685
LeftUpLeg  -4.70942 3.38063 0.838597
LeftLeg  21.3641 0.972785 0.794386
LeftFoot  -11.4715 0.0578062 -1.5564
LeftToes  1.06246e-005 4.65855e-005 -8.185e-006
